<svg xmlns="http://www.w3.org/2000/svg" xmlns:xlink="http://www.w3.org/1999/xlink" viewBox="0 0 80 36"><g transform="translate(0 0.853)" id="ss3280670463_1"><path d="M 0 0 L 80 0 L 80 35.294 L 0 35.294 Z" fill="transparent"></path><path d="M 8.5 10.157 C 8.484 13.897 14.052 13.923 14.068 10.183 C 14.084 6.443 8.516 6.417 8.5 10.158 Z M 0.123 7.753 L 0 35.269 L 4.68 35.29 L 4.802 7.774 L 0.122 7.753 Z M 30.252 22.291 L 27.287 30.371 L 24.356 22.187 L 21.728 15.771 L 16.533 15.747 L 24.687 35.27 L 29.842 35.294 L 38.133 15.844 L 32.938 15.822 L 30.252 22.292 Z M 8.902 15.744 L 8.815 35.31 L 13.533 35.332 L 13.62 15.766 Z M 71.944 15.609 C 69.546 15.597 67.608 16.573 65.666 18.493 L 65.368 15.747 L 61.067 15.747 L 61.067 35.294 L 65.745 35.294 L 65.79 25.382 C 65.804 22.43 67.786 19.959 70.686 19.972 C 73.702 19.987 75.277 22.238 75.265 25.19 L 75.265 35.3 L 79.982 35.321 L 79.982 25.172 C 80.009 19.071 76.429 15.63 71.944 15.609 Z M 48.381 15.204 C 42.312 15.177 38.423 19.323 38.401 25.104 C 38.373 31.199 42.183 35.262 48.633 35.294 C 51.476 35.306 54.706 34.317 56.69 32.247 L 53.742 29.263 C 52.677 30.378 50.432 31.022 48.726 31.014 C 45.464 30.998 43.461 29.295 43.169 26.939 L 57.773 27.011 C 58.528 19.185 54.639 15.232 48.379 15.205 Z M 43.264 23.045 C 43.956 20.582 46.014 19.357 48.513 19.37 C 51.168 19.382 53.062 20.622 53.353 23.092 Z M 48.926 9.395 C 48.617 9.636 48.183 9.636 47.874 9.395 C 47.241 8.949 44.74 6.155 44.801 3.631 C 44.801 1.626 46.412 0 48.4 0 C 50.388 0 51.999 1.626 51.999 3.63 C 52.06 6.154 49.559 8.95 48.926 9.395 Z M 45.303 10.791 C 45.403 11.173 45.241 11.575 44.905 11.782 C 44.261 12.211 40.775 13.513 38.502 12.502 C 36.679 11.744 35.809 9.612 36.56 7.737 C 37.311 5.864 39.398 4.959 41.222 5.717 C 43.54 6.612 45.136 10.026 45.302 10.791 Z M 51.458 10.791 C 51.358 11.173 51.52 11.575 51.856 11.782 C 52.5 12.211 55.986 13.513 58.258 12.502 C 60.082 11.744 60.952 9.612 60.2 7.737 C 59.45 5.864 57.362 4.959 55.539 5.717 C 53.221 6.612 51.624 10.026 51.459 10.791 Z" fill="rgb(255,60,110)"></path></g></svg>